HIERARCHY
ROOT joint_Root
{
	OFFSET 0.0 0.0 0.0
	CHANNELS 6 Xposition Yposition Zposition Zrotation Xrotation Yrotation 
	JOINT Hips
	{
		OFFSET -0.726466 93.3139 -2.00062
		CHANNELS 6 Xposition Yposition Zposition Zrotation Xrotation Yrotation 
		JOINT Spine
		{
			OFFSET 15.7357 0.0 0.0
			CHANNELS 6 Xposition Yposition Zposition Zrotation Xrotation Yrotation 
			JOINT Chest
			{
				OFFSET 8.98455 -0.406207 0.0
				CHANNELS 6 Xposition Yposition Zposition Zrotation Xrotation Yrotation 
				JOINT Neck
				{
					OFFSET 16.3773 0.0 0.0
					CHANNELS 6 Xposition Yposition Zposition Zrotation Xrotation Yrotation 
					JOINT Head
					{
						OFFSET 6.45672 0.0 0.0
						CHANNELS 6 Xposition Yposition Zposition Zrotation Xrotation Yrotation 
						End Site
						{
							OFFSET 0.0 0.0 0.0
						}
					}
				}
				JOINT Shoulder_L
				{
					OFFSET 12.9942 -0.242716 4.98039
					CHANNELS 6 Xposition Yposition Zposition Zrotation Xrotation Yrotation 
					JOINT UpperArm_L
					{
						OFFSET 5.34809 0.0 0.0
						CHANNELS 6 Xposition Yposition Zposition Zrotation Xrotation Yrotation 
						JOINT LowerArm_L
						{
							OFFSET 24.3286 1.87007e-05 0.0
							CHANNELS 6 Xposition Yposition Zposition Zrotation Xrotation Yrotation 
							JOINT Hand_L
							{
								OFFSET 22.2916 0.0 0.0
								CHANNELS 6 Xposition Yposition Zposition Zrotation Xrotation Yrotation 
								End Site
								{
									OFFSET 0.0 0.0 0.0
								}
							}
						}
					}
				}
				JOINT Shoulder_R
				{
					OFFSET 12.9945 -0.242716 -4.98039
					CHANNELS 6 Xposition Yposition Zposition Zrotation Xrotation Yrotation 
					JOINT UpperArm_R
					{
						OFFSET -5.34813 0.0 0.0
						CHANNELS 6 Xposition Yposition Zposition Zrotation Xrotation Yrotation 
						JOINT LowerArm_R
						{
							OFFSET -24.3289 0.000322201 0.0
							CHANNELS 6 Xposition Yposition Zposition Zrotation Xrotation Yrotation 
							JOINT Hand_R
							{
								OFFSET -22.2915 -0.000108084 0.0
								CHANNELS 6 Xposition Yposition Zposition Zrotation Xrotation Yrotation 
								End Site
								{
									OFFSET 0.0 0.0 0.0
								}
							}
						}
					}
				}
			}
		}
		JOINT UpperLeg_L
		{
			OFFSET -2.19248 -6.46944 0.0
			CHANNELS 6 Xposition Yposition Zposition Zrotation Xrotation Yrotation 
			JOINT LowerLeg_L
			{
				OFFSET 39.0811 0.0 -1.23785e-05
				CHANNELS 6 Xposition Yposition Zposition Zrotation Xrotation Yrotation 
				JOINT Foot_L
				{
					OFFSET 40.9854 0.0 -1.26872e-05
					CHANNELS 6 Xposition Yposition Zposition Zrotation Xrotation Yrotation 
					JOINT Toes_L
					{
						OFFSET 11.7543 0.0 0.0
						CHANNELS 6 Xposition Yposition Zposition Zrotation Xrotation Yrotation 
						End Site
						{
							OFFSET 0.0 0.0 0.0
						}
					}
				}
			}
		}
		JOINT UpperLeg_R
		{
			OFFSET -2.19251 6.46944 0.0
			CHANNELS 6 Xposition Yposition Zposition Zrotation Xrotation Yrotation 
			JOINT LowerLeg_R
			{
				OFFSET -39.0811 -0.00228153 -0.0401928
				CHANNELS 6 Xposition Yposition Zposition Zrotation Xrotation Yrotation 
				JOINT Foot_R
				{
					OFFSET -40.9854 0.0 0.0
					CHANNELS 6 Xposition Yposition Zposition Zrotation Xrotation Yrotation 
					JOINT Toes_R
					{
						OFFSET -11.7543 0.0 0.0
						CHANNELS 6 Xposition Yposition Zposition Zrotation Xrotation Yrotation 
						End Site
						{
							OFFSET 0.0 0.0 0.0
						}
					}
				}
			}
		}
	}
}
MOTION
Frames:	4
Frame Time:	0.0333333
0.000000 0.000000 0.000000 0.000000 0.000000 -0.000000 -0.651301 91.802600 1.973900 88.216600 -1.582600 4.914380 15.735700 0.000005 -0.000001 84.647400 84.236900 -84.223700 8.984550 -0.406207 -0.000000 3.714630 -1.088770 0.881844 16.377300 -0.000001 -0.000001 3.447890 -1.909750 0.784053 6.456720 -0.000001 -0.000000 1.914440 -0.439331 -1.377370 12.994200 -0.242716 4.980390 -90.049300 0.152913 -72.128200 5.348090 -0.000007 -0.000001 -52.594800 56.601100 -17.901200 24.328600 0.000019 0.000005 0.093452 0.097768 -43.421300 22.291600 -0.000001 0.000005 7.121560 5.673110 -17.894800 12.994500 -0.242716 -4.980390 88.127500 5.772390 -71.993100 -5.348130 -0.000001 -0.000004 -63.525800 35.970800 -16.359500 -24.328900 0.000322 -0.000009 -2.624310 -6.118250 -23.261700 -22.291500 -0.000108 -0.000004 6.620850 5.572890 -9.837620 -2.192480 -6.469440 -0.000000 -169.042000 -19.247600 -1.410080 39.081100 -0.000007 -0.000012 -0.198641 0.452655 23.693800 40.985400 -0.000006 -0.000013 -6.498580 -1.117840 -64.870200 11.754300 -0.000000 0.000003 -0.000152 -0.001473 -16.633500 -2.192510 6.469440 -0.000001 172.783000 21.862800 -179.556000 -39.081100 -0.002282 -0.040193 0.034972 -0.078936 21.851200 -40.985400 0.000008 0.000006 -1.060900 3.539860 -64.950800 -11.754300 -0.000006 -0.000006 -0.001379 -0.020659 -17.413200
0.000000 0.000000 0.000000 0.000000 0.000000 -0.000000 -0.666796 91.801200 1.950490 88.194400 -1.657830 4.939010 15.735700 0.000005 -0.000001 84.758400 84.225400 -84.388300 8.984550 -0.406207 -0.000000 3.738930 -1.066680 0.774273 16.377300 -0.000001 -0.000001 3.309800 -1.853290 0.749599 6.456720 -0.000001 -0.000000 1.694020 -0.505670 -1.323160 12.994200 -0.242716 4.980390 -89.918300 -0.249610 -71.874100 5.348090 -0.000007 -0.000001 -48.546400 59.172700 -18.873800 24.328600 0.000019 0.000005 0.454516 0.396003 -48.913600 22.291600 -0.000001 0.000005 7.846360 5.679220 -19.297800 12.994500 -0.242716 -4.980390 88.157200 5.620310 -71.813100 -5.348130 -0.000001 -0.000004 -63.355800 33.898600 -16.201700 -24.328900 0.000322 -0.000009 -2.616440 -6.028480 -23.506200 -22.291500 -0.000108 -0.000004 7.662220 5.571630 -9.772010 -2.192480 -6.469440 -0.000000 -169.006000 -19.236500 -1.400880 39.081100 -0.000007 -0.000012 -0.200257 0.455811 23.718200 40.985400 -0.000006 -0.000013 -6.527800 -1.214650 -64.873800 11.754300 -0.000000 0.000003 -0.000166 -0.001586 -16.637700 -2.192510 6.469440 -0.000001 172.802000 21.870700 -179.551000 -39.081100 -0.002282 -0.040193 0.034908 -0.078823 21.839300 -40.985400 0.000008 0.000006 -1.060660 3.645010 -64.944900 -11.754300 -0.000006 -0.000006 -0.001493 -0.022182 -17.475100
0.000000 0.000000 0.000000 0.000000 0.000000 -0.000000 -0.679121 91.814500 1.919830 88.136800 -1.736730 4.974460 15.735700 0.000005 -0.000001 84.887900 84.200100 -84.564700 8.984550 -0.406207 -0.000000 3.791180 -1.043410 0.680320 16.377300 -0.000001 -0.000001 3.089040 -1.784380 0.700534 6.456720 -0.000001 -0.000000 1.477150 -0.548392 -1.317850 12.994200 -0.242716 4.980390 -89.757400 -0.730279 -71.621200 5.348090 -0.000007 -0.000001 -44.228300 61.464700 -19.829900 24.328600 0.000019 0.000005 0.957172 0.673344 -54.850200 22.291600 -0.000001 0.000005 8.581890 5.681870 -20.560300 12.994500 -0.242716 -4.980390 88.195600 5.415780 -71.541900 -5.348130 -0.000001 -0.000004 -62.758200 31.488100 -16.433400 -24.328900 0.000322 -0.000009 -2.692850 -6.176270 -23.605100 -22.291500 -0.000108 -0.000004 8.931260 5.569910 -9.685180 -2.192480 -6.469440 -0.000000 -168.928000 -19.220200 -1.337750 39.081100 -0.000007 -0.000012 -0.200650 0.457889 23.663600 40.985400 -0.000006 -0.000013 -6.550390 -1.280220 -64.839700 11.754300 -0.000000 0.000003 -0.000163 -0.001556 -16.636600 -2.192510 6.469440 -0.000001 172.857000 21.908600 -179.536000 -39.081100 -0.002282 -0.040193 0.034093 -0.076889 21.814000 -40.985400 0.000008 0.000006 -0.989135 3.729560 -64.843100 -11.754300 -0.000006 -0.000006 -0.001321 -0.019871 -17.381200
0.000000 0.000000 0.000000 0.000000 0.000000 -0.000000 -0.679975 91.808400 1.919780 88.082600 -1.876770 4.982710 15.735700 0.000005 -0.000001 85.194000 84.211500 -84.920500 8.984550 -0.406207 -0.000000 3.773190 -0.978176 0.578636 16.377300 -0.000001 -0.000001 2.972630 -1.680850 0.652444 6.456720 -0.000001 -0.000000 1.182570 -0.540528 -1.384910 12.994200 -0.242716 4.980390 -89.579500 -1.246460 -71.355900 5.348090 -0.000007 -0.000001 -39.723300 63.642600 -20.832900 24.328600 0.000019 0.000005 1.673600 0.935346 -60.793300 22.291600 -0.000001 0.000005 9.701960 5.681610 -21.974400 12.994500 -0.242716 -4.980390 88.208000 5.291980 -71.262400 -5.348130 -0.000001 -0.000004 -61.631300 28.466900 -16.801800 -24.328900 0.000322 -0.000009 -2.565230 -5.843200 -23.743900 -22.291500 -0.000108 -0.000004 9.461780 5.564030 -9.386460 -2.192480 -6.469440 -0.000000 -168.857000 -19.302900 -1.333890 39.081100 -0.000007 -0.000012 -0.200658 0.456211 23.741900 40.985400 -0.000006 -0.000013 -6.563490 -1.321640 -64.891200 11.754300 -0.000000 0.000003 -0.000147 -0.001431 -16.632000 -2.192510 6.469440 -0.000001 172.890000 21.964700 -179.521000 -39.081100 -0.002282 -0.040193 0.034255 -0.077417 21.782200 -40.985400 0.000008 0.000006 -0.989898 3.910770 -64.841300 -11.754300 -0.000006 -0.000006 -0.001449 -0.021592 -17.451100
